# xmcd CD database file
#
# Track frame offsets:
#	150
#	23873
#	52807
#	70887
#	117533
#	138448
#	179883
#	195776
#	225952
#	261663
#
# Disc length: 4216 seconds
#
# Revision: 0
# Processed by: cddbd v1.4PL0 Copyright (c) Steve Scherf et al.
# Submitted via: CDex 1.40Release
#
DISCID=8c10760a
DTITLE=Motor City Josh - Live From The Road
DYEAR=2003
DGENRE=Blues
TTITLE0=I'm Ready
TTITLE1=Let's Party Tonight
TTITLE2=Slippin Out
TTITLE3=Woman With A Whole Lotta Dough
TTITLE4=I Live The Blues
TTITLE5=54-46 That's My Number
TTITLE6=Nothin' But The Blues
TTITLE7=Big Fat Woman
TTITLE8=I'll Play The Blues For You
TTITLE9=Legalize It
EXTD=YEAR: 2003 ID3G: 0
EXTT0=
EXTT1=
EXTT2=
EXTT3=
EXTT4=
EXTT5=
EXTT6=
EXTT7=
EXTT8=
EXTT9=
PLAYORDER=
